<svg xmlns="http://www.w3.org/2000/svg" width="1600" height="900" viewBox="0 0 1600 900" role="img" aria-label="Machine learning foundations concepts">
  <defs><linearGradient id="bg" x1="0" y1="0" x2="1" y2="1"><stop offset="0%" stop-color="#0f172a"/><stop offset="100%" stop-color="#1e293b"/></linearGradient></defs>
  <rect width="1600" height="900" fill="url(#bg)"/>
  <text x="90" y="130" fill="#bfdbfe" font-family="Segoe UI, Arial, sans-serif" font-size="34" font-weight="700">Machine Learning Foundations</text>
  <rect x="110" y="210" width="470" height="300" rx="14" fill="#0b223c" stroke="#38bdf8"/>
  <text x="150" y="260" fill="#93c5fd" font-family="Segoe UI, Arial, sans-serif" font-size="24">Regression</text>
  <line x1="160" y1="460" x2="520" y2="460" stroke="#64748b" stroke-width="2"/>
  <line x1="160" y1="460" x2="160" y2="290" stroke="#64748b" stroke-width="2"/>
  <circle cx="220" cy="410" r="8" fill="#f59e0b"/><circle cx="300" cy="380" r="8" fill="#f59e0b"/><circle cx="380" cy="340" r="8" fill="#f59e0b"/><circle cx="470" cy="305" r="8" fill="#f59e0b"/>
  <line x1="190" y1="430" x2="500" y2="300" stroke="#22d3ee" stroke-width="5"/>
  <rect x="630" y="210" width="470" height="300" rx="14" fill="#132a13" stroke="#34d399"/>
  <text x="670" y="260" fill="#a7f3d0" font-family="Segoe UI, Arial, sans-serif" font-size="24">Classification</text>
  <circle cx="730" cy="390" r="10" fill="#22c55e"/><circle cx="790" cy="350" r="10" fill="#22c55e"/><circle cx="840" cy="420" r="10" fill="#22c55e"/>
  <circle cx="930" cy="310" r="10" fill="#f43f5e"/><circle cx="980" cy="380" r="10" fill="#f43f5e"/><circle cx="1040" cy="340" r="10" fill="#f43f5e"/>
  <line x1="700" y1="430" x2="1060" y2="300" stroke="#86efac" stroke-width="4"/>
  <rect x="1150" y="210" width="340" height="300" rx="14" fill="#2a1c11" stroke="#fb923c"/>
  <text x="1190" y="260" fill="#fed7aa" font-family="Segoe UI, Arial, sans-serif" font-size="24">Decision Tree</text>
  <line x1="1320" y1="300" x2="1240" y2="370" stroke="#fdba74" stroke-width="4"/><line x1="1320" y1="300" x2="1400" y2="370" stroke="#fdba74" stroke-width="4"/>
  <line x1="1240" y1="370" x2="1200" y2="430" stroke="#fdba74" stroke-width="4"/><line x1="1240" y1="370" x2="1280" y2="430" stroke="#fdba74" stroke-width="4"/>
  <line x1="1400" y1="370" x2="1360" y2="430" stroke="#fdba74" stroke-width="4"/><line x1="1400" y1="370" x2="1440" y2="430" stroke="#fdba74" stroke-width="4"/>
  <circle cx="1320" cy="300" r="10" fill="#fb923c"/><circle cx="1240" cy="370" r="9" fill="#fb923c"/><circle cx="1400" cy="370" r="9" fill="#fb923c"/>
  <text x="90" y="790" fill="#94a3b8" font-family="Segoe UI, Arial, sans-serif" font-size="24">Regression • Classification • Trees • Evaluation</text>
</svg>