<svg xmlns="http://www.w3.org/2000/svg" width="1600" height="900" viewBox="0 0 1600 900" role="img" aria-label="MLOps and Deployment architecture diagram">
  <defs>
    <linearGradient id="bg" x1="0" y1="0" x2="1" y2="1">
      <stop offset="0%" stop-color="#081226"/>
      <stop offset="100%" stop-color="#0f2a46"/>
    </linearGradient>
  </defs>
  <rect width="1600" height="900" fill="url(#bg)"/>
  <text x="90" y="130" fill="#9bd3ff" font-family="Segoe UI, Arial, sans-serif" font-size="34" font-weight="700">MLOps &amp; Deployment</text>
  <g font-family="Segoe UI, Arial, sans-serif" font-size="24" fill="#dbeafe">
    <rect x="120" y="220" width="260" height="90" rx="14" fill="#173b63" stroke="#3b82f6"/>
    <text x="190" y="275">Source</text>
    <rect x="470" y="220" width="260" height="90" rx="14" fill="#173b63" stroke="#3b82f6"/>
    <text x="540" y="275">Build CI</text>
    <rect x="820" y="220" width="260" height="90" rx="14" fill="#173b63" stroke="#3b82f6"/>
    <text x="875" y="275">Registry</text>
    <rect x="1170" y="220" width="260" height="90" rx="14" fill="#173b63" stroke="#3b82f6"/>
    <text x="1210" y="275">Kubernetes</text>
  </g>
  <g stroke="#60a5fa" stroke-width="6" fill="none" stroke-linecap="round">
    <path d="M390 265 L455 265"/>
    <path d="M740 265 L805 265"/>
    <path d="M1090 265 L1155 265"/>
    <path d="M1300 315 L1300 410 L840 410"/>
  </g>
  <rect x="760" y="450" width="520" height="240" rx="18" fill="#102a44" stroke="#22d3ee"/>
  <text x="810" y="510" fill="#22d3ee" font-family="Segoe UI, Arial, sans-serif" font-size="32" font-weight="700">Model Serving + Monitoring</text>
  <text x="810" y="565" fill="#bfdbfe" font-family="Segoe UI, Arial, sans-serif" font-size="24">Latency | Drift | Rollback | Canary</text>
</svg>