<svg xmlns="http://www.w3.org/2000/svg" width="1600" height="900" viewBox="0 0 1600 900" role="img" aria-label="Production ML Systems design architecture">
  <defs><linearGradient id="bg" x1="0" y1="0" x2="1" y2="1"><stop offset="0%" stop-color="#0b1020"/><stop offset="100%" stop-color="#16213d"/></linearGradient></defs>
  <rect width="1600" height="900" fill="url(#bg)"/>
  <text x="90" y="130" fill="#c7d2fe" font-family="Segoe UI, Arial, sans-serif" font-size="34" font-weight="700">Production ML Systems Design</text>
  <g stroke="#818cf8" stroke-width="3" fill="#1f2a4a" font-family="Segoe UI, Arial, sans-serif" font-size="22" fill-opacity="1">
    <rect x="120" y="220" width="260" height="110" rx="14"/><rect x="450" y="220" width="260" height="110" rx="14"/>
    <rect x="780" y="220" width="260" height="110" rx="14"/><rect x="1110" y="220" width="340" height="110" rx="14"/>
    <rect x="450" y="420" width="260" height="110" rx="14"/><rect x="780" y="420" width="260" height="110" rx="14"/>
    <rect x="1110" y="420" width="340" height="110" rx="14"/>
  </g>
  <g fill="#e0e7ff" font-family="Segoe UI, Arial, sans-serif" font-size="22">
    <text x="175" y="286">Data Ingest</text><text x="505" y="286">Feature Service</text><text x="856" y="286">Training</text><text x="1195" y="286">Model Registry</text>
    <text x="520" y="486">Batch Jobs</text><text x="835" y="486">Online Inference</text><text x="1190" y="486">Observability</text>
  </g>
  <g stroke="#a5b4fc" stroke-width="5" fill="none" stroke-linecap="round">
    <path d="M385 275 L445 275"/><path d="M715 275 L775 275"/><path d="M1045 275 L1105 275"/>
    <path d="M915 335 L915 410"/><path d="M580 335 L580 410"/><path d="M1045 475 L1105 475"/>
  </g>
  <text x="90" y="800" fill="#94a3b8" font-family="Segoe UI, Arial, sans-serif" font-size="24">Scalability | Reliability | Latency | Cost</text>
</svg>