<svg xmlns="http://www.w3.org/2000/svg" width="1600" height="900" viewBox="0 0 1600 900" role="img" aria-label="Python for Data Science notebook visual">
  <defs><linearGradient id="bg" x1="0" y1="0" x2="1" y2="1"><stop offset="0%" stop-color="#0d1325"/><stop offset="100%" stop-color="#0f2742"/></linearGradient></defs>
  <rect width="1600" height="900" fill="url(#bg)"/>
  <text x="90" y="130" fill="#fde68a" font-family="Segoe UI, Arial, sans-serif" font-size="34" font-weight="700">Python for Data Science</text>
  <rect x="100" y="210" width="1400" height="600" rx="16" fill="#0b1b2d" stroke="#60a5fa"/>
  <g font-family="Consolas, monospace" font-size="24" fill="#93c5fd">
    <text x="150" y="280">import pandas as pd</text>
    <text x="150" y="325">import numpy as np</text>
    <text x="150" y="370">df = pd.read_csv('sales.csv')</text>
    <text x="150" y="415">df.groupby('segment')['revenue'].mean()</text>
  </g>
  <g>
    <rect x="840" y="260" width="590" height="230" rx="12" fill="#11253c" stroke="#38bdf8"/>
    <polyline points="880,430 980,370 1080,390 1180,320 1280,340 1380,300" fill="none" stroke="#22c55e" stroke-width="6"/>
    <rect x="840" y="530" width="590" height="230" rx="12" fill="#11253c" stroke="#38bdf8"/>
    <line x1="900" y1="720" x2="900" y2="570" stroke="#facc15" stroke-width="20"/>
    <line x1="980" y1="720" x2="980" y2="620" stroke="#facc15" stroke-width="20"/>
    <line x1="1060" y1="720" x2="1060" y2="590" stroke="#facc15" stroke-width="20"/>
    <line x1="1140" y1="720" x2="1140" y2="650" stroke="#facc15" stroke-width="20"/>
  </g>
</svg>