<svg xmlns="http://www.w3.org/2000/svg" width="1600" height="900" viewBox="0 0 1600 900" role="img" aria-label="Real world ML case studies systems">
  <defs><linearGradient id="bg" x1="0" y1="0" x2="1" y2="1"><stop offset="0%" stop-color="#0c1320"/><stop offset="100%" stop-color="#1f2937"/></linearGradient></defs>
  <rect width="1600" height="900" fill="url(#bg)"/>
  <text x="90" y="130" fill="#e2e8f0" font-family="Segoe UI, Arial, sans-serif" font-size="34" font-weight="700">Real-World ML Case Studies</text>
  <g fill="#111827" stroke="#22d3ee" stroke-width="3" font-family="Segoe UI, Arial, sans-serif" font-size="22">
    <rect x="120" y="230" width="430" height="260" rx="14"/><rect x="585" y="230" width="430" height="260" rx="14"/><rect x="1050" y="230" width="430" height="260" rx="14"/>
  </g>
  <g fill="#bae6fd" font-family="Segoe UI, Arial, sans-serif" font-size="24">
    <text x="160" y="285">Fraud Detection</text><text x="635" y="285">Recommendation System</text><text x="1100" y="285">Demand Forecasting</text>
    <text x="160" y="340">Streaming events -&gt; Risk score</text><text x="635" y="340">User-item embeddings -&gt; Ranking</text><text x="1100" y="340">Time series -&gt; Planning</text>
  </g>
  <g stroke="#67e8f9" stroke-width="4" fill="none" stroke-linecap="round">
    <path d="M335 500 L335 620 L800 620"/><path d="M800 500 L800 620"/><path d="M1265 500 L1265 620 L800 620"/>
  </g>
  <rect x="600" y="640" width="400" height="170" rx="14" fill="#082f49" stroke="#0ea5e9"/>
  <text x="665" y="710" fill="#bae6fd" font-family="Segoe UI, Arial, sans-serif" font-size="28" font-weight="700">Business Impact Layer</text>
  <text x="635" y="755" fill="#93c5fd" font-family="Segoe UI, Arial, sans-serif" font-size="22">A/B metrics • ROI • Reliability</text>
</svg>